<?xml version="1.0" standalone="no"?>
<!DOCTYPE svg PUBLIC "-//W3C//DTD SVG 20010904//EN"
 "http://www.w3.org/TR/2001/REC-SVG-20010904/DTD/svg10.dtd">
<svg version="1.0" xmlns="http://www.w3.org/2000/svg"
 width="50.000000pt" height="46.000000pt" viewBox="0 0 50.000000 46.000000"
 preserveAspectRatio="xMidYMid meet">

<g transform="translate(0.000000,46.000000) scale(0.100000,-0.100000)"
fill="#000000" stroke="none">
<path d="M220 392 c-40 -57 -45 -60 -116 -81 -41 -12 -74 -25 -74 -29 0 -4 18
-18 40 -32 22 -14 40 -30 40 -37 0 -7 -11 -43 -25 -79 -14 -37 -24 -69 -22
-70 2 -2 22 24 45 59 22 34 67 93 99 130 102 121 95 108 82 147 -6 19 -15 39
-19 43 -5 5 -27 -18 -50 -51z"/>
<path d="M282 194 c-29 -20 -52 -40 -52 -44 0 -4 28 -24 63 -45 34 -21 72 -45
84 -52 l21 -14 -24 88 c-13 48 -24 91 -24 95 0 15 -16 8 -68 -28z"/>
</g>
</svg>
